# xmcd
#
# Track frame offsets: 
#        150
#        6219
#        29362
#        53887
#        78538
#        98955
#        118628
#        142589
#        157032
#        188965
#
# Disc length: 2846 seconds
#
# Revision: 2
# Processed by: cddbd v1.5.2PL0 Copyright (c) Steve Scherf et al.
# Submitted via: ExactAudioCopy v1.0b6
#
DISCID=7c0b1c0a
DTITLE=Ryuichi Sakamoto - Neo Geo (2009 Remaster)
DYEAR=1987
DGENRE=Synthpop
TTITLE0=Before Long
TTITLE1=Neo Geo
TTITLE2=Risky
TTITLE3=Free Trading
TTITLE4=Shogunade
TTITLE5=Parata
TTITLE6=Okinawa Song - Chin Nuku Juushii
TTITLE7=After All
TTITLE8=Risky (Extended Mix)
TTITLE9=Risky (Instrumental Version)
EXTD=YEAR: 1987
EXTT0=
EXTT1=
EXTT2=
EXTT3=
EXTT4=
EXTT5=
EXTT6=
EXTT7=
EXTT8=
EXTT9=
PLAYORDER=
